<svg width="136" height="24" viewBox="0 0 136 24" fill="none" xmlns="http://www.w3.org/2000/svg">
<path fill-rule="evenodd" clip-rule="evenodd" d="M10.7893 3.2108C11.2376 2.13286 12.7647 2.13286 13.213 3.2108L15.295 8.21652L20.6991 8.64976C21.8628 8.74306 22.3347 10.1953 21.4481 10.9549L17.3307 14.4818L18.5886 19.7553C18.8595 20.8909 17.6241 21.7884 16.6278 21.1799L12.0012 18.354L7.37451 21.1799C6.37819 21.7884 5.1428 20.8909 5.41368 19.7553L6.6716 14.4818L2.55425 10.9549C1.66761 10.1953 2.13948 8.74306 3.30322 8.64976L8.70731 8.21652L10.7893 3.2108Z" fill="#E5DB22"/>
<path fill-rule="evenodd" clip-rule="evenodd" d="M38.7893 3.2108C39.2376 2.13286 40.7647 2.13286 41.213 3.2108L43.295 8.21652L48.6991 8.64976C49.8628 8.74306 50.3347 10.1953 49.4481 10.9549L45.3307 14.4818L46.5886 19.7553C46.8595 20.8909 45.6241 21.7884 44.6278 21.1799L40.0012 18.354L35.3745 21.1799C34.3782 21.7884 33.1428 20.8909 33.4137 19.7553L34.6716 14.4818L30.5543 10.9549C29.6676 10.1953 30.1395 8.74306 31.3032 8.64976L36.7073 8.21652L38.7893 3.2108Z" fill="#E5DB22"/>
<path fill-rule="evenodd" clip-rule="evenodd" d="M66.7893 3.2108C67.2376 2.13286 68.7647 2.13286 69.213 3.2108L71.295 8.21652L76.6991 8.64976C77.8628 8.74306 78.3347 10.1953 77.4481 10.9549L73.3307 14.4818L74.5886 19.7553C74.8595 20.8909 73.6241 21.7884 72.6278 21.1799L68.0012 18.354L63.3745 21.1799C62.3782 21.7884 61.1428 20.8909 61.4137 19.7553L62.6716 14.4818L58.5543 10.9549C57.6676 10.1953 58.1395 8.74306 59.3032 8.64976L64.7073 8.21652L66.7893 3.2108Z" fill="#E5DB22"/>
<path fill-rule="evenodd" clip-rule="evenodd" d="M94.7893 3.2108C95.2376 2.13286 96.7647 2.13286 97.213 3.2108L99.295 8.21652L104.699 8.64976C105.863 8.74306 106.335 10.1953 105.448 10.9549L101.331 14.4818L102.589 19.7553C102.86 20.8909 101.624 21.7884 100.628 21.1799L96.0012 18.354L91.3745 21.1799C90.3782 21.7884 89.1428 20.8909 89.4137 19.7553L90.6716 14.4818L86.5543 10.9549C85.6676 10.1953 86.1395 8.74306 87.3032 8.64976L92.7073 8.21652L94.7893 3.2108Z" fill="#E5DB22"/>
<path fill-rule="evenodd" clip-rule="evenodd" d="M122.789 3.2108C123.238 2.13286 124.765 2.13286 125.213 3.2108L127.295 8.21652L132.699 8.64976C133.863 8.74306 134.335 10.1953 133.448 10.9549L129.331 14.4818L130.589 19.7553C130.86 20.8909 129.624 21.7884 128.628 21.1799L124.001 18.354L119.375 21.1799C118.378 21.7884 117.143 20.8909 117.414 19.7553L118.672 14.4818L114.554 10.9549C113.668 10.1953 114.139 8.74306 115.303 8.64976L120.707 8.21652L122.789 3.2108Z" fill="#E5DB22"/>
</svg>
